<?xml version="1.0" encoding="utf-8"?>
<!-- Generator: Adobe Illustrator 19.1.0, SVG Export Plug-In . SVG Version: 6.00 Build 0)  -->
<svg version="1.0" id="Layer_1" xmlns="http://www.w3.org/2000/svg" xmlns:xlink="http://www.w3.org/1999/xlink" x="0px" y="0px"
	 viewBox="0 0 48 48" style="enable-background:new 0 0 48 48;" xml:space="preserve">
<style type="text/css">
	.st0{fill:#FFFFFF;stroke:#000000;stroke-width:6;stroke-miterlimit:10;}
</style>
<circle class="st0" cx="24" cy="24" r="20.4"/>
<g>
	<path d="M30.1,35.5l-0.4,1.7c-1.2,0.5-2.2,0.9-2.9,1.1s-1.6,0.4-2.6,0.4c-1.5,0-2.7-0.4-3.5-1.1c-0.8-0.7-1.2-1.6-1.2-2.8
		c0-0.4,0-0.9,0.1-1.3c0.1-0.5,0.2-1,0.3-1.5l1.5-5.4c0.1-0.5,0.3-1,0.3-1.5c0.1-0.5,0.1-0.9,0.1-1.3c0-0.7-0.1-1.2-0.4-1.5
		s-0.8-0.4-1.6-0.4c-0.4,0-0.8,0.1-1.2,0.2c-0.4,0.1-0.8,0.2-1.1,0.4l0.4-1.7c1-0.4,2-0.8,2.9-1.1c0.9-0.3,1.8-0.4,2.6-0.4
		c1.5,0,2.6,0.4,3.4,1.1c0.8,0.7,1.2,1.6,1.2,2.8c0,0.2,0,0.7-0.1,1.2c-0.1,0.6-0.2,1.1-0.3,1.6l-1.5,5.4c-0.1,0.4-0.2,0.9-0.3,1.5
		c-0.1,0.6-0.1,1-0.1,1.3c0,0.7,0.2,1.2,0.5,1.5c0.3,0.3,0.9,0.4,1.7,0.4c0.4,0,0.8-0.1,1.3-0.2C29.5,35.7,29.9,35.6,30.1,35.5z
		 M30.5,12.8c0,0.9-0.4,1.7-1.1,2.4c-0.7,0.7-1.6,1-2.6,1c-1,0-1.9-0.3-2.6-1c-0.7-0.7-1.1-1.5-1.1-2.4s0.4-1.8,1.1-2.4s1.6-1,2.6-1
		c1,0,1.9,0.3,2.6,1S30.5,11.8,30.5,12.8z"/>
</g>
<polygon points="6.8,32.3 2,46 15.1,40.8 "/>
</svg>
